<mxfile host="Electron" modified="2024-09-04T04:28:35.138Z" agent="Mozilla/5.0 (Windows NT 10.0; Win64; x64) AppleWebKit/537.36 (KHTML, like Gecko) draw.io/23.0.2 Chrome/120.0.6099.109 Electron/28.1.0 Safari/537.36" etag="L6t1SPELNnmvLo4VxkxN" version="23.0.2" type="device">
  <diagram name="Page-1" id="2YBvvXClWsGukQMizWep">
    <mxGraphModel dx="1450" dy="621" grid="0" gridSize="10" guides="1" tooltips="1" connect="1" arrows="1" fold="1" page="0" pageScale="1" pageWidth="850" pageHeight="1100" math="0" shadow="0">
      <root>
        <mxCell id="0" />
        <mxCell id="1" parent="0" />
        <mxCell id="DzmuH9avELXMIIvXB95H-1" value="" style="shape=umlLifeline;perimeter=lifelinePerimeter;whiteSpace=wrap;html=1;container=1;dropTarget=0;collapsible=0;recursiveResize=0;outlineConnect=0;portConstraint=eastwest;newEdgeStyle={&quot;curved&quot;:0,&quot;rounded&quot;:0};participant=umlActor;" parent="1" vertex="1">
          <mxGeometry x="25" y="37" width="20" height="347" as="geometry" />
        </mxCell>
        <mxCell id="JpaTvgJXBN56mBUlhyUK-1" value="" style="html=1;points=[[0,0,0,0,5],[0,1,0,0,-5],[1,0,0,0,5],[1,1,0,0,-5]];perimeter=orthogonalPerimeter;outlineConnect=0;targetShapes=umlLifeline;portConstraint=eastwest;newEdgeStyle={&quot;curved&quot;:0,&quot;rounded&quot;:0};" parent="DzmuH9avELXMIIvXB95H-1" vertex="1">
          <mxGeometry x="5" y="58" width="10" height="200" as="geometry" />
        </mxCell>
        <mxCell id="hzaYRkzp_LopEzToYhyO-2" value="Admin" style="shape=umlLifeline;perimeter=lifelinePerimeter;whiteSpace=wrap;html=1;container=1;dropTarget=0;collapsible=0;recursiveResize=0;outlineConnect=0;portConstraint=eastwest;newEdgeStyle={&quot;curved&quot;:0,&quot;rounded&quot;:0};" parent="1" vertex="1">
          <mxGeometry x="143" y="35" width="100" height="604" as="geometry" />
        </mxCell>
        <mxCell id="JpaTvgJXBN56mBUlhyUK-2" value="" style="html=1;points=[[0,0,0,0,5],[0,1,0,0,-5],[1,0,0,0,5],[1,1,0,0,-5]];perimeter=orthogonalPerimeter;outlineConnect=0;targetShapes=umlLifeline;portConstraint=eastwest;newEdgeStyle={&quot;curved&quot;:0,&quot;rounded&quot;:0};" parent="hzaYRkzp_LopEzToYhyO-2" vertex="1">
          <mxGeometry x="45" y="57" width="10" height="258" as="geometry" />
        </mxCell>
        <mxCell id="DzmuH9avELXMIIvXB95H-17" value="" style="html=1;points=[[0,0,0,0,5],[0,1,0,0,-5],[1,0,0,0,5],[1,1,0,0,-5]];perimeter=orthogonalPerimeter;outlineConnect=0;targetShapes=umlLifeline;portConstraint=eastwest;newEdgeStyle={&quot;curved&quot;:0,&quot;rounded&quot;:0};" parent="hzaYRkzp_LopEzToYhyO-2" vertex="1">
          <mxGeometry x="45" y="447" width="10" height="112" as="geometry" />
        </mxCell>
        <mxCell id="hzaYRkzp_LopEzToYhyO-3" value="DB" style="shape=umlLifeline;perimeter=lifelinePerimeter;whiteSpace=wrap;html=1;container=1;dropTarget=0;collapsible=0;recursiveResize=0;outlineConnect=0;portConstraint=eastwest;newEdgeStyle={&quot;curved&quot;:0,&quot;rounded&quot;:0};" parent="1" vertex="1">
          <mxGeometry x="301" y="32" width="100" height="604" as="geometry" />
        </mxCell>
        <mxCell id="JpaTvgJXBN56mBUlhyUK-10" value="" style="html=1;points=[[0,0,0,0,5],[0,1,0,0,-5],[1,0,0,0,5],[1,1,0,0,-5]];perimeter=orthogonalPerimeter;outlineConnect=0;targetShapes=umlLifeline;portConstraint=eastwest;newEdgeStyle={&quot;curved&quot;:0,&quot;rounded&quot;:0};" parent="hzaYRkzp_LopEzToYhyO-3" vertex="1">
          <mxGeometry x="45" y="97" width="10" height="17" as="geometry" />
        </mxCell>
        <mxCell id="DzmuH9avELXMIIvXB95H-14" value="" style="html=1;points=[[0,0,0,0,5],[0,1,0,0,-5],[1,0,0,0,5],[1,1,0,0,-5]];perimeter=orthogonalPerimeter;outlineConnect=0;targetShapes=umlLifeline;portConstraint=eastwest;newEdgeStyle={&quot;curved&quot;:0,&quot;rounded&quot;:0};" parent="hzaYRkzp_LopEzToYhyO-3" vertex="1">
          <mxGeometry x="45" y="490" width="10" height="32" as="geometry" />
        </mxCell>
        <mxCell id="JpaTvgJXBN56mBUlhyUK-3" value="Create Quiz" style="html=1;verticalAlign=bottom;endArrow=block;curved=0;rounded=0;" parent="1" edge="1">
          <mxGeometry width="80" relative="1" as="geometry">
            <mxPoint x="40" y="101" as="sourcePoint" />
            <mxPoint x="187" y="101" as="targetPoint" />
          </mxGeometry>
        </mxCell>
        <mxCell id="JpaTvgJXBN56mBUlhyUK-6" value="Enter Quiz" style="html=1;verticalAlign=bottom;endArrow=block;curved=0;rounded=0;entryX=0;entryY=0;entryDx=0;entryDy=5;entryPerimeter=0;exitX=1;exitY=0;exitDx=0;exitDy=5;exitPerimeter=0;" parent="1" edge="1">
          <mxGeometry width="80" relative="1" as="geometry">
            <mxPoint x="40" y="119" as="sourcePoint" />
            <mxPoint x="188" y="119" as="targetPoint" />
            <mxPoint as="offset" />
          </mxGeometry>
        </mxCell>
        <mxCell id="JpaTvgJXBN56mBUlhyUK-7" value="Submits" style="html=1;verticalAlign=bottom;endArrow=block;curved=0;rounded=0;exitX=1;exitY=0;exitDx=0;exitDy=5;exitPerimeter=0;" parent="1" edge="1">
          <mxGeometry width="80" relative="1" as="geometry">
            <mxPoint x="40" y="137" as="sourcePoint" />
            <mxPoint x="187" y="137" as="targetPoint" />
          </mxGeometry>
        </mxCell>
        <mxCell id="JpaTvgJXBN56mBUlhyUK-11" value="Saves Quiz" style="html=1;verticalAlign=bottom;endArrow=block;curved=0;rounded=0;entryX=0;entryY=0;entryDx=0;entryDy=5;entryPerimeter=0;exitX=1;exitY=0;exitDx=0;exitDy=5;exitPerimeter=0;" parent="1" edge="1">
          <mxGeometry width="80" relative="1" as="geometry">
            <mxPoint x="198" y="137" as="sourcePoint" />
            <mxPoint x="346" y="137" as="targetPoint" />
            <mxPoint as="offset" />
          </mxGeometry>
        </mxCell>
        <mxCell id="JpaTvgJXBN56mBUlhyUK-13" value="Generates Room ID" style="html=1;verticalAlign=bottom;endArrow=open;dashed=1;endSize=8;curved=0;rounded=0;exitX=0;exitY=1;exitDx=0;exitDy=-5;exitPerimeter=0;entryX=1;entryY=1;entryDx=0;entryDy=-5;entryPerimeter=0;" parent="1" edge="1">
          <mxGeometry relative="1" as="geometry">
            <mxPoint x="189" y="158" as="sourcePoint" />
            <mxPoint x="41" y="157" as="targetPoint" />
          </mxGeometry>
        </mxCell>
        <mxCell id="ceTiRcbH1Ae4_WQJ_M4x-2" value="Join Quiz" style="html=1;verticalAlign=bottom;endArrow=block;curved=0;rounded=0;entryX=0;entryY=0;entryDx=0;entryDy=5;entryPerimeter=0;exitX=1;exitY=0;exitDx=0;exitDy=5;exitPerimeter=0;" parent="1" edge="1">
          <mxGeometry width="80" relative="1" as="geometry">
            <mxPoint x="41" y="501" as="sourcePoint" />
            <mxPoint x="189" y="501" as="targetPoint" />
          </mxGeometry>
        </mxCell>
        <mxCell id="ceTiRcbH1Ae4_WQJ_M4x-3" value="Displays Quiz" style="html=1;verticalAlign=bottom;endArrow=open;dashed=1;endSize=8;curved=0;rounded=0;exitX=0;exitY=1;exitDx=0;exitDy=-5;exitPerimeter=0;" parent="1" edge="1">
          <mxGeometry relative="1" as="geometry">
            <mxPoint x="186" y="553" as="sourcePoint" />
            <mxPoint x="40" y="553" as="targetPoint" />
          </mxGeometry>
        </mxCell>
        <mxCell id="ceTiRcbH1Ae4_WQJ_M4x-4" value="Gives Quiz" style="html=1;verticalAlign=bottom;endArrow=block;curved=0;rounded=0;entryX=0;entryY=0;entryDx=0;entryDy=5;entryPerimeter=0;exitX=1;exitY=0;exitDx=0;exitDy=5;exitPerimeter=0;" parent="1" edge="1">
          <mxGeometry width="80" relative="1" as="geometry">
            <mxPoint x="40" y="571" as="sourcePoint" />
            <mxPoint x="188" y="571" as="targetPoint" />
          </mxGeometry>
        </mxCell>
        <mxCell id="ceTiRcbH1Ae4_WQJ_M4x-7" value="Displays Score" style="html=1;verticalAlign=bottom;endArrow=open;dashed=1;endSize=8;curved=0;rounded=0;exitX=0;exitY=1;exitDx=0;exitDy=-5;exitPerimeter=0;" parent="1" edge="1">
          <mxGeometry relative="1" as="geometry">
            <mxPoint x="185" y="587" as="sourcePoint" />
            <mxPoint x="39" y="587" as="targetPoint" />
          </mxGeometry>
        </mxCell>
        <mxCell id="ceTiRcbH1Ae4_WQJ_M4x-14" value="Asks For Room ID" style="html=1;verticalAlign=bottom;endArrow=open;dashed=1;endSize=8;curved=0;rounded=0;exitX=0;exitY=1;exitDx=0;exitDy=-5;exitPerimeter=0;" parent="1" edge="1">
          <mxGeometry relative="1" as="geometry">
            <mxPoint x="185" y="519" as="sourcePoint" />
            <mxPoint x="39" y="519" as="targetPoint" />
          </mxGeometry>
        </mxCell>
        <mxCell id="ceTiRcbH1Ae4_WQJ_M4x-15" value="Gives Room ID" style="html=1;verticalAlign=bottom;endArrow=block;curved=0;rounded=0;entryX=0;entryY=0;entryDx=0;entryDy=5;entryPerimeter=0;exitX=1;exitY=0;exitDx=0;exitDy=5;exitPerimeter=0;" parent="1" edge="1">
          <mxGeometry width="80" relative="1" as="geometry">
            <mxPoint x="40" y="536" as="sourcePoint" />
            <mxPoint x="188" y="536" as="targetPoint" />
          </mxGeometry>
        </mxCell>
        <mxCell id="ceTiRcbH1Ae4_WQJ_M4x-22" value="" style="shape=umlDestroy;whiteSpace=wrap;html=1;strokeWidth=3;targetShapes=umlLifeline;" parent="1" vertex="1">
          <mxGeometry x="20" y="628" width="30" height="30" as="geometry" />
        </mxCell>
        <mxCell id="ceTiRcbH1Ae4_WQJ_M4x-23" value="" style="shape=umlDestroy;whiteSpace=wrap;html=1;strokeWidth=3;targetShapes=umlLifeline;" parent="1" vertex="1">
          <mxGeometry x="178" y="628" width="30" height="30" as="geometry" />
        </mxCell>
        <mxCell id="ceTiRcbH1Ae4_WQJ_M4x-25" value="" style="shape=umlDestroy;whiteSpace=wrap;html=1;strokeWidth=3;targetShapes=umlLifeline;" parent="1" vertex="1">
          <mxGeometry x="336" y="628" width="30" height="30" as="geometry" />
        </mxCell>
        <mxCell id="DzmuH9avELXMIIvXB95H-4" value="Teacher" style="text;html=1;align=center;verticalAlign=middle;resizable=0;points=[];autosize=1;strokeColor=none;fillColor=none;" parent="1" vertex="1">
          <mxGeometry x="-35" y="44" width="61" height="26" as="geometry" />
        </mxCell>
        <mxCell id="DzmuH9avELXMIIvXB95H-6" value="opt" style="shape=umlFrame;whiteSpace=wrap;html=1;pointerEvents=0;" parent="1" vertex="1">
          <mxGeometry x="-35" y="167" width="297" height="116" as="geometry" />
        </mxCell>
        <mxCell id="DzmuH9avELXMIIvXB95H-7" value="View Room ID" style="html=1;verticalAlign=bottom;endArrow=block;curved=0;rounded=0;exitX=1;exitY=0;exitDx=0;exitDy=5;exitPerimeter=0;" parent="1" edge="1">
          <mxGeometry width="80" relative="1" as="geometry">
            <mxPoint x="39" y="186" as="sourcePoint" />
            <mxPoint x="186" y="186" as="targetPoint" />
          </mxGeometry>
        </mxCell>
        <mxCell id="DzmuH9avELXMIIvXB95H-8" value="View Result" style="html=1;verticalAlign=bottom;endArrow=block;curved=0;rounded=0;exitX=1;exitY=0;exitDx=0;exitDy=5;exitPerimeter=0;" parent="1" edge="1">
          <mxGeometry width="80" relative="1" as="geometry">
            <mxPoint x="40" y="205.16" as="sourcePoint" />
            <mxPoint x="187" y="205.16" as="targetPoint" />
          </mxGeometry>
        </mxCell>
        <mxCell id="DzmuH9avELXMIIvXB95H-9" value="Copy to Clipboard" style="html=1;verticalAlign=bottom;endArrow=block;curved=0;rounded=0;exitX=1;exitY=0;exitDx=0;exitDy=5;exitPerimeter=0;" parent="1" edge="1">
          <mxGeometry width="80" relative="1" as="geometry">
            <mxPoint x="41" y="229" as="sourcePoint" />
            <mxPoint x="188" y="229" as="targetPoint" />
          </mxGeometry>
        </mxCell>
        <mxCell id="DzmuH9avELXMIIvXB95H-10" value="Home" style="html=1;verticalAlign=bottom;endArrow=block;curved=0;rounded=0;exitX=1;exitY=0;exitDx=0;exitDy=5;exitPerimeter=0;" parent="1" edge="1">
          <mxGeometry width="80" relative="1" as="geometry">
            <mxPoint x="41" y="248" as="sourcePoint" />
            <mxPoint x="188" y="248" as="targetPoint" />
          </mxGeometry>
        </mxCell>
        <mxCell id="DzmuH9avELXMIIvXB95H-11" value="View Dashboard" style="html=1;verticalAlign=bottom;endArrow=open;dashed=1;endSize=8;curved=0;rounded=0;exitX=0;exitY=1;exitDx=0;exitDy=-5;exitPerimeter=0;entryX=1;entryY=1;entryDx=0;entryDy=-5;entryPerimeter=0;" parent="1" edge="1">
          <mxGeometry relative="1" as="geometry">
            <mxPoint x="186" y="271" as="sourcePoint" />
            <mxPoint x="38" y="270" as="targetPoint" />
          </mxGeometry>
        </mxCell>
        <mxCell id="DzmuH9avELXMIIvXB95H-12" value="" style="shape=umlLifeline;perimeter=lifelinePerimeter;whiteSpace=wrap;html=1;container=1;dropTarget=0;collapsible=0;recursiveResize=0;outlineConnect=0;portConstraint=eastwest;newEdgeStyle={&quot;curved&quot;:0,&quot;rounded&quot;:0};participant=umlActor;" parent="1" vertex="1">
          <mxGeometry x="25" y="439" width="20" height="202" as="geometry" />
        </mxCell>
        <mxCell id="ceTiRcbH1Ae4_WQJ_M4x-9" value="" style="html=1;points=[[0,0,0,0,5],[0,1,0,0,-5],[1,0,0,0,5],[1,1,0,0,-5]];perimeter=orthogonalPerimeter;outlineConnect=0;targetShapes=umlLifeline;portConstraint=eastwest;newEdgeStyle={&quot;curved&quot;:0,&quot;rounded&quot;:0};" parent="DzmuH9avELXMIIvXB95H-12" vertex="1">
          <mxGeometry x="5" y="51" width="10" height="112" as="geometry" />
        </mxCell>
        <mxCell id="DzmuH9avELXMIIvXB95H-13" value="" style="shape=umlDestroy;whiteSpace=wrap;html=1;strokeWidth=3;targetShapes=umlLifeline;" parent="1" vertex="1">
          <mxGeometry x="20" y="374" width="30" height="30" as="geometry" />
        </mxCell>
        <mxCell id="DzmuH9avELXMIIvXB95H-15" value="Varifies" style="html=1;verticalAlign=bottom;endArrow=block;curved=0;rounded=0;" parent="1" edge="1">
          <mxGeometry x="-0.0045" width="80" relative="1" as="geometry">
            <mxPoint x="200" y="531" as="sourcePoint" />
            <mxPoint x="346" y="531" as="targetPoint" />
            <mxPoint as="offset" />
          </mxGeometry>
        </mxCell>
        <mxCell id="DzmuH9avELXMIIvXB95H-16" value="Varified" style="html=1;verticalAlign=bottom;endArrow=open;dashed=1;endSize=8;curved=0;rounded=0;" parent="1" edge="1">
          <mxGeometry relative="1" as="geometry">
            <mxPoint x="343" y="549" as="sourcePoint" />
            <mxPoint x="199" y="549" as="targetPoint" />
          </mxGeometry>
        </mxCell>
      </root>
    </mxGraphModel>
  </diagram>
</mxfile>
